<svg width="37" height="35" viewBox="0 0 37 35" fill="none" xmlns="http://www.w3.org/2000/svg">
<path d="M26.0417 21.9089H24.3958L23.8125 21.3711C25.9247 19.0289 27.0856 16.0387 27.0833 12.9461C27.0833 10.3856 26.2891 7.88264 24.8012 5.75366C23.3132 3.62468 21.1983 1.96534 18.7238 0.985472C16.2494 0.00560936 13.5266 -0.250767 10.8998 0.248762C8.273 0.748292 5.8601 1.98129 3.96627 3.79184C2.07243 5.60239 0.782714 7.90918 0.260205 10.4205C-0.262303 12.9318 0.00586739 15.5348 1.0308 17.9004C2.05574 20.266 3.79141 22.2879 6.01833 23.7105C8.24524 25.133 10.8634 25.8923 13.5417 25.8923C16.8958 25.8923 19.9792 24.7172 22.3542 22.7653L22.9167 23.323V24.8964L33.3333 34.855L36.4583 31.8674L26.0417 21.9089ZM13.5417 21.9089C8.33334 21.9089 4.16667 17.9254 4.16667 12.9461C4.16667 7.96686 8.33334 3.98344 13.5417 3.98344C18.75 3.98344 22.9167 7.96686 22.9167 12.9461C22.9167 17.9254 18.75 21.9089 13.5417 21.9089ZM16.4792 17.1686L13.5417 14.3603L10.6042 17.1686L9.12501 15.7545L12.0625 12.9461L9.12501 10.1378L10.6042 8.72372L13.5417 11.532L16.4792 8.72372L17.9583 10.1378L15.0208 12.9461L17.9583 15.7545L16.4792 17.1686Z" fill="white"/>
</svg>
