<svg width="20" height="20" viewBox="0 0 20 20" fill="none" xmlns="http://www.w3.org/2000/svg">
<path d="M10.9804 15.098C10.9804 15.2919 10.9229 15.4815 10.8152 15.6427C10.7074 15.8039 10.5543 15.9296 10.3752 16.0038C10.196 16.078 9.99891 16.0974 9.80874 16.0596C9.61856 16.0218 9.44387 15.9284 9.30676 15.7913C9.16965 15.6542 9.07628 15.4795 9.03845 15.2893C9.00062 15.0991 9.02003 14.902 9.09424 14.7229C9.16844 14.5437 9.2941 14.3906 9.45533 14.2829C9.61655 14.1751 9.8061 14.1176 10 14.1176C10.26 14.1176 10.5094 14.2209 10.6932 14.4048C10.8771 14.5887 10.9804 14.838 10.9804 15.098ZM10 4.70588C7.94118 4.70588 6.27451 6.20098 6.27451 8.03921V8.43137C6.27451 8.58738 6.33649 8.737 6.4468 8.84732C6.55712 8.95763 6.70674 9.01961 6.86275 9.01961C7.01876 9.01961 7.16838 8.95763 7.27869 8.84732C7.38901 8.737 7.45098 8.58738 7.45098 8.43137V8.03921C7.45098 6.85 8.59412 5.88235 10 5.88235C11.4059 5.88235 12.549 6.85 12.549 8.03921C12.549 9.22843 11.4059 10.1961 10 10.1961C9.84399 10.1961 9.69437 10.258 9.58406 10.3684C9.47374 10.4787 9.41177 10.6283 9.41177 10.7843V11.5686C9.41177 11.7246 9.47374 11.8743 9.58406 11.9846C9.69437 12.0949 9.84399 12.1569 10 12.1569C10.156 12.1569 10.3056 12.0949 10.4159 11.9846C10.5263 11.8743 10.5882 11.7246 10.5882 11.5686V11.3314C12.3637 11.0784 13.7255 9.69804 13.7255 8.03921C13.7255 6.20098 12.0588 4.70588 10 4.70588ZM20 10C20 11.9778 19.4135 13.9112 18.3147 15.5557C17.2159 17.2002 15.6541 18.4819 13.8268 19.2388C11.9996 19.9957 9.98891 20.1937 8.0491 19.8078C6.10929 19.422 4.32746 18.4696 2.92894 17.0711C1.53041 15.6725 0.578004 13.8907 0.192152 11.9509C-0.1937 10.0111 0.00433267 8.00043 0.761209 6.17316C1.51809 4.3459 2.79981 2.78412 4.4443 1.6853C6.08879 0.586489 8.02219 0 10 0C12.6512 0.00311358 15.1929 1.05768 17.0676 2.93237C18.9423 4.80706 19.9969 7.34879 20 10ZM18.8235 10C18.8235 8.25487 18.306 6.54893 17.3365 5.09791C16.367 3.64689 14.9889 2.51595 13.3766 1.84812C11.7643 1.18029 9.99021 1.00555 8.27862 1.34601C6.56702 1.68647 4.99482 2.52683 3.76083 3.76082C2.52683 4.99481 1.68647 6.56702 1.34602 8.27861C1.00556 9.99021 1.18029 11.7643 1.84813 13.3766C2.51596 14.9889 3.64689 16.367 5.09791 17.3365C6.54893 18.306 8.25487 18.8235 10 18.8235C12.3394 18.8209 14.5821 17.8905 16.2363 16.2363C17.8905 14.5821 18.8209 12.3393 18.8235 10Z" fill="#3E3E43"/>
</svg>
